<svg width="40" height="40" viewBox="0 0 40 40" fill="none" xmlns="http://www.w3.org/2000/svg">
<path d="M25.8232 11.2501C28.022 12.4676 29.7398 14.5007 30.5264 17.0177L31.7197 20.8331H23.334C20.1123 20.8331 17.5 23.4455 17.5 26.6671C17.5001 27.9063 17.8869 29.0554 18.5459 30.0001C17.8869 30.9449 17.5 32.0938 17.5 33.3331C17.5 34.5725 17.8868 35.7223 18.5459 36.6671H16.9355C10.1893 36.6669 5.37837 30.1229 7.39062 23.6837L9.47461 17.0177C10.2612 14.5007 11.9789 12.4676 14.1777 11.2501H25.8232ZM33.334 23.3331C35.1747 23.3334 36.667 24.8263 36.667 26.6671C36.6668 28.5077 35.1746 29.9999 33.334 30.0001C35.1746 30.0004 36.6669 31.4924 36.667 33.3331C36.667 35.1739 35.1747 36.6669 33.334 36.6671H23.334C21.493 36.6671 20 35.1741 20 33.3331C20.0001 31.4923 21.4931 30.0001 23.334 30.0001C21.4932 30.0001 20.0002 28.5079 20 26.6671C20 24.8262 21.493 23.3331 23.334 23.3331H33.334ZM22.0889 3.51672C25.3312 2.47077 27.9413 6.13315 26.0039 8.75012H13.9971C12.0597 6.1332 14.6699 2.47097 17.9121 3.51672L19.459 4.01575C19.8109 4.12919 20.1911 4.12927 20.543 4.01575L22.0889 3.51672Z" fill="#D84040"/>
</svg>
