<svg width="32" height="45" viewBox="0 0 32 45" fill="none" xmlns="http://www.w3.org/2000/svg">
<path d="M0.996675 21.0246L16.3928 1.26219C17.5969 -0.2834 19.8538 0.678588 19.8538 2.73741V18.0337C19.8538 19.267 20.7389 20.2668 21.8308 20.2668H29.3192C31.0204 20.2668 31.9271 22.5326 30.8033 23.9751L15.4072 43.7375C14.2031 45.2831 11.9462 44.3211 11.9462 42.2623V26.966C11.9462 25.7327 11.0611 24.7329 9.96923 24.7329H2.48078C0.779649 24.7329 -0.127137 22.4672 0.996675 21.0246Z" fill="#EC2B39" stroke="white" stroke-linecap="round" stroke-linejoin="round"/>
<path d="M2.84426 21.2075L16.3312 3.89573C17.386 2.5418 19.363 3.3845 19.363 5.18801V18.5875C19.363 19.6678 20.1384 20.5436 21.0948 20.5436H27.6546C29.1448 20.5436 29.9391 22.5284 28.9547 23.7921L15.4678 41.1039C14.413 42.4578 12.4359 41.6151 12.4359 39.8116V26.4121C12.4359 25.3317 11.6606 24.4559 10.7042 24.4559H4.14433C2.65415 24.4559 1.85981 22.4711 2.84426 21.2075Z" fill="#EC2B39" stroke="white" stroke-linecap="round" stroke-linejoin="round"/>
</svg>
