<svg width="40" height="40" viewBox="0 0 40 40" fill="none" xmlns="http://www.w3.org/2000/svg">
<path d="M30 30.0004C32.7614 30.0004 35 31.4924 35 33.3334C35 35.1743 32.7614 36.6664 30 36.6664C27.2386 36.6664 25 35.1743 25 33.3334C25 31.4924 27.2386 30.0004 30 30.0004ZM5 18.7504C5.69036 18.7504 6.25 19.31 6.25 20.0004C6.2502 27.5941 12.4062 33.7504 20 33.7504C20.6904 33.7504 21.25 34.31 21.25 35.0004C21.2498 35.6906 20.6902 36.2504 20 36.2504C11.0255 36.2504 3.7502 28.9748 3.75 20.0004C3.75 19.31 4.30964 18.7504 5 18.7504ZM30 23.3334C31.8409 23.3334 33.3329 24.8256 33.333 26.6664C33.333 28.5073 31.8409 30.0004 30 30.0004C28.159 30.0004 26.667 28.5073 26.667 26.6664C26.6671 24.8256 28.1591 23.3334 30 23.3334ZM20 3.75037C28.9746 3.75037 36.25 11.0257 36.25 20.0004C36.2498 20.6906 35.6902 21.2504 35 21.2504C34.3098 21.2504 33.7502 20.6906 33.75 20.0004C33.75 12.4065 27.5939 6.25037 20 6.25037C19.3098 6.25037 18.7502 5.69055 18.75 5.00037C18.75 4.31001 19.3096 3.75037 20 3.75037ZM11.667 10.0004C14.4283 10.0005 16.667 11.4925 16.667 13.3334C16.667 15.1742 14.4282 16.6663 11.667 16.6664C8.90559 16.6664 6.66703 15.1743 6.66699 13.3334C6.66699 11.4924 8.90557 10.0004 11.667 10.0004ZM11.667 3.33337C13.5077 3.33355 14.9998 4.82567 15 6.66638C15 8.50722 13.5078 10.0002 11.667 10.0004C9.82604 10.0004 8.33301 8.50733 8.33301 6.66638C8.33316 4.82556 9.82614 3.33337 11.667 3.33337Z" fill="#D8212E"/>
</svg>
