<svg width="63" height="64" viewBox="0 0 63 64" fill="none" xmlns="http://www.w3.org/2000/svg">
<rect x="0.5" y="0.5" width="61.359" height="63" rx="7.5" fill="#FCECEC"/>
<rect x="0.5" y="0.5" width="61.359" height="63" rx="7.5" stroke="#D84040"/>
<path d="M37.9688 17.0054L44.3623 23.5962V35.5269L51.2168 42.0513L48.251 46.9946H17.668L11.1426 40.4702V23.5962L17.668 17.0054H37.9688ZM19.5801 21.144C17.3711 21.1441 15.5803 22.9351 15.5801 25.144V38.9624C15.5802 41.1715 17.371 42.9624 19.5801 42.9624H46.7861L40.6357 37.8765C40.1764 37.4966 39.9103 36.9315 39.9102 36.3354V25.144C39.9099 22.9351 38.1192 21.144 35.9102 21.144H19.5801Z" fill="#EC2B39"/>
</svg>
