<svg width="550" height="550" viewBox="0 0 550 550" fill="none" xmlns="http://www.w3.org/2000/svg">
<circle cx="274.788" cy="274.788" r="252.748" stroke="#FFDADC"/>
<path d="M119.719 74.5673C155.923 46.528 199.052 28.8295 244.516 23.3557L244.686 24.7758C199.48 30.2187 156.594 47.8172 120.595 75.6981L119.719 74.5673Z" fill="#EC2B39"/>
<path d="M119.08 474.512C82.9664 446.357 55.1622 408.937 38.6269 366.234L39.9607 365.718C56.4026 408.179 84.0498 445.388 119.96 473.384L119.08 474.512Z" fill="#EC2B39"/>
<path d="M522.736 326.326C513.417 371.16 492.116 412.628 461.1 446.317L460.048 445.348C490.888 411.849 512.069 370.615 521.336 326.035L522.736 326.326Z" fill="#EC2B39"/>
<circle cx="274.788" cy="274.788" r="194.825" transform="rotate(50.8601 274.788 274.788)" stroke="#FFDADC"/>
<path d="M319.068 84.5479C353.467 92.5545 385.051 109.738 410.459 134.27L409.693 135.064C384.428 110.67 353.022 93.5838 318.818 85.6224L319.068 84.5479Z" fill="#EC2B39"/>
<path d="M79.5059 278.876C78.7666 243.565 87.6153 208.715 105.11 178.034L106.069 178.58C88.6725 209.088 79.8737 243.742 80.6089 278.853L79.5059 278.876Z" fill="#EC2B39"/>
<path d="M364.67 448.204C333.313 464.456 298.136 471.902 262.883 469.749L262.95 468.648C298.004 470.789 332.982 463.385 364.162 447.224L364.67 448.204Z" fill="#EC2B39"/>
<circle cx="274.786" cy="274.788" r="134.528" transform="rotate(89.4361 274.786 274.788)" fill="#FFF9F9" stroke="#FFDADB"/>
<path d="M135.358 264.288L135.358 241.888L157.054 241.888C160.542 241.888 163.358 244.704 163.358 248.192L163.358 257.984C163.358 261.472 160.542 264.288 157.054 264.288L135.358 264.288ZM138.174 244.672L138.174 261.472L157.054 261.472C159.006 261.472 160.574 259.904 160.574 257.984L160.574 248.192C160.574 246.272 159.006 244.672 157.054 244.672L138.174 244.672ZM199.389 264.288L172.093 264.288L172.093 251.68L194.493 251.68L193.789 254.464L174.877 254.464L174.877 261.472L200.093 261.472L199.389 264.288ZM172.093 241.888L200.093 241.888L199.389 244.672L172.093 244.672L172.093 241.888ZM208.796 264.288L208.796 241.888L230.492 241.888C233.98 241.888 236.796 244.704 236.796 248.192L236.796 257.984C236.796 261.472 233.98 264.288 230.492 264.288L208.796 264.288ZM211.612 244.672L211.612 261.472L230.492 261.472C232.444 261.472 234.012 259.904 234.012 257.984L234.012 248.192C234.012 246.272 232.444 244.672 230.492 244.672L211.612 244.672ZM244.906 264.288L244.906 241.888L247.722 241.888L247.722 264.288L244.906 264.288ZM262.508 264.288C259.02 264.288 256.204 261.472 256.204 257.984L256.204 248.16C256.204 244.704 259.02 241.888 262.476 241.888L281.388 241.888L280.684 244.672L262.476 244.672C260.556 244.672 259.02 246.24 259.02 248.16L259.02 257.984C259.02 259.904 260.556 261.472 262.508 261.472L284.204 261.472L283.5 264.288L262.508 264.288ZM300.7 241.888L303.74 241.888L316.22 264.288L312.988 264.288L302.204 244.928L291.452 264.288L288.22 264.288L300.7 241.888ZM315.643 244.672L316.347 241.888L343.643 241.888L342.939 244.672L331.035 244.672L331.035 264.288L328.251 264.288L328.251 244.672L315.643 244.672ZM377.58 264.288L350.284 264.288L350.284 251.68L372.684 251.68L371.98 254.464L353.068 254.464L353.068 261.472L378.284 261.472L377.58 264.288ZM350.284 241.888L378.284 241.888L377.58 244.672L350.284 244.672L350.284 241.888ZM386.988 264.288L386.988 241.888L408.684 241.888C412.172 241.888 414.988 244.704 414.988 248.192L414.988 257.984C414.988 261.472 412.172 264.288 408.684 264.288L386.988 264.288ZM389.804 244.672L389.804 261.472L408.684 261.472C410.636 261.472 412.204 259.904 412.204 257.984L412.204 248.192C412.204 246.272 410.636 244.672 408.684 244.672L389.804 244.672ZM229.047 279.888L231.831 279.888L231.831 299.472L257.047 299.472L256.343 302.288L229.047 302.288L229.047 279.888ZM272.95 279.888L275.99 279.888L288.47 302.288L285.238 302.288L274.454 282.928L263.702 302.288L260.47 302.288L272.95 279.888ZM293.298 282.672L293.298 279.888L311.506 279.888C314.194 279.888 316.402 282.064 316.402 284.784C316.402 285.552 316.21 286.32 315.89 286.96C318.93 287.376 321.298 290 321.298 293.168L321.298 295.984C321.298 299.472 318.45 302.288 314.994 302.288L293.298 302.288L293.298 286.896L311.506 286.896C312.658 286.896 313.586 285.936 313.586 284.784C313.586 283.632 312.658 282.672 311.506 282.672L293.298 282.672ZM314.994 289.68L296.082 289.68L296.082 299.472L314.994 299.472C316.914 299.472 318.482 297.904 318.482 295.984L318.482 293.168C318.482 291.248 316.914 289.68 314.994 289.68Z" fill="#EC2B39"/>
<path d="M380.722 191.061C395.861 210.216 405.523 233.118 408.68 257.328L407.924 257.427C404.785 233.353 395.177 210.581 380.123 191.534L380.722 191.061Z" fill="#EC2B39"/>
<path d="M167.484 192.819C182.306 173.417 202.111 158.396 224.791 149.356L225.074 150.065C202.521 159.054 182.828 173.989 168.09 193.282L167.484 192.819Z" fill="#EC2B39"/>
<path d="M248.609 407.254C224.657 402.521 202.436 391.381 184.311 375.022L184.822 374.456C202.844 390.723 224.94 401.799 248.757 406.506L248.609 407.254Z" fill="#EC2B39"/>
</svg>
