<svg width="246" height="67" viewBox="0 0 246 67" fill="none" xmlns="http://www.w3.org/2000/svg">
<line x1="0.5" y1="33.5397" x2="177.787" y2="33.5397" stroke="#6A6A6A" stroke-dasharray="4 4"/>
<path d="M230.393 20.6459L245.38 33.6534" stroke="#D9212E"/>
<path d="M245.38 33.5134L230.393 46.521" stroke="#D9212E"/>
<path d="M63.8584 19.7913L167.19 19.7913C169.399 19.7913 171.19 21.5822 171.19 23.7913V29.5135C171.19 31.7226 172.981 33.5135 175.19 33.5135H245.118" stroke="#6A6A6A"/>
<path d="M32.0938 47.6357L157.27 47.6357C159.479 47.6357 161.27 45.845 161.27 43.636L161.27 37.5131C161.27 35.304 163.061 33.5133 165.27 33.5133H222.118" stroke="#6A6A6A"/>
<path d="M23.5 6.27258H180.269C182.479 6.27258 184.269 8.06344 184.269 10.2726V29.5135C184.269 31.7226 186.06 33.5135 188.269 33.5135H245.117" stroke="#D9212E"/>
<path d="M23.5 0L23.5 11.925" stroke="#6A6A6A"/>
<path d="M63.5 14.1525L63.5 26.6523" stroke="#6A6A6A"/>
<path d="M32.5 40.5746L32.5 54.8931" stroke="#6A6A6A"/>
<path d="M0.5 60.7543H157.269C159.479 60.7543 161.269 58.9634 161.269 56.7543V37.5134C161.269 35.3043 163.06 33.5134 165.269 33.5134H222.117" stroke="#D9212E"/>
<path d="M0.5 54.356L0.500001 66.931" stroke="#6A6A6A"/>
</svg>
