<svg width="40" height="40" viewBox="0 0 40 40" fill="none" xmlns="http://www.w3.org/2000/svg">
<path fill-rule="evenodd" clip-rule="evenodd" d="M20.0247 5.46268C18.5848 5.46268 17.2529 5.57067 16.029 5.78665C15.8022 5.83298 15.5683 5.83331 15.3413 5.78763C15.1144 5.74196 14.8988 5.65119 14.7076 5.52072C14.5163 5.39025 14.3531 5.22272 14.2278 5.02806C14.1024 4.83339 14.0174 4.61555 13.9777 4.38743C13.9381 4.15931 13.9446 3.92556 13.9969 3.7C14.0492 3.47445 14.1463 3.26169 14.2823 3.07432C14.4183 2.88695 14.5905 2.72878 14.7888 2.60917C14.9871 2.48957 15.2073 2.41096 15.4365 2.37801C16.9523 2.1214 18.4873 1.99541 20.0247 2.00143C25.7095 2.00143 30.3974 3.55207 33.6704 6.71704C36.9516 9.89308 38.5715 14.4619 38.5715 19.9999C38.5715 23.1372 38.0509 25.9588 37.007 28.3955L38.4552 29.157C38.702 29.2865 38.9139 29.4736 39.0729 29.7025C39.2319 29.9315 39.3332 30.1954 39.3683 30.4719C39.4033 30.7484 39.3711 31.0293 39.2743 31.2906C39.1776 31.552 39.0191 31.7861 38.8124 31.9731C36.8907 33.712 34.5647 34.3738 32.0006 33.9336C31.6382 33.8711 31.3049 33.6957 31.0481 33.4324C29.2427 31.5633 28.5311 29.2733 28.999 26.7314C29.0479 26.4645 29.1588 26.2129 29.3228 25.9967C29.4869 25.7806 29.6994 25.6061 29.9433 25.4872C30.1872 25.3684 30.4556 25.3086 30.7269 25.3125C30.9982 25.3165 31.2647 25.3843 31.505 25.5103L33.9279 26.784C34.6949 24.8928 35.1075 22.6388 35.1075 19.9999C35.1075 15.1265 33.7008 11.5628 31.2641 9.20637C28.8191 6.84164 25.1031 5.46268 20.0247 5.46268ZM1.18442 8.04616C3.10057 6.30999 5.421 5.65097 7.98232 6.08847C8.34507 6.15172 8.67849 6.32813 8.93486 6.59243C10.7347 8.4532 11.4436 10.7404 10.9784 13.2796C10.9292 13.5462 10.818 13.7975 10.6538 14.0133C10.4896 14.2291 10.2771 14.4033 10.0332 14.5219C9.78937 14.6404 9.52108 14.7 9.24998 14.6959C8.97887 14.6917 8.71253 14.6239 8.47244 14.4979L6.10217 13.2547C5.34623 15.1376 4.93919 17.3805 4.93919 19.9999C4.93919 24.8734 6.34584 28.4371 8.78256 30.7935C11.2276 33.1582 14.9436 34.5372 20.0219 34.5372C21.5338 34.5372 22.9275 34.4181 24.2031 34.18C24.4268 34.1389 24.6563 34.1423 24.8786 34.1899C25.101 34.2375 25.3118 34.3284 25.4989 34.4575C25.6861 34.5866 25.8461 34.7513 25.9696 34.9422C26.0931 35.1331 26.1779 35.3464 26.219 35.57C26.2601 35.7937 26.2567 36.0232 26.2091 36.2455C26.1615 36.4679 26.0705 36.6786 25.9414 36.8658C25.8124 37.053 25.6477 37.213 25.4568 37.3365C25.2659 37.46 25.0526 37.5448 24.8289 37.5859C23.3226 37.8628 21.7203 38.0012 20.0219 38.0012C14.3372 38.0012 9.64926 36.4506 6.3763 33.2828C3.0978 30.1068 1.47517 25.5379 1.47517 19.9999C1.47517 16.8793 1.9902 14.0687 3.02581 11.6403L1.54163 10.865C1.29408 10.7359 1.08143 10.5489 0.921826 10.3199C0.762218 10.0908 0.660388 9.82657 0.625025 9.54965C0.589662 9.27273 0.621815 8.99136 0.718741 8.72956C0.815667 8.46776 0.974489 8.23329 1.18165 8.04616M20.0413 10.973C21.1102 10.0232 22.7106 10.8345 22.7106 12.1941V18.0201H26.0141C27.3321 18.0201 28.1323 19.5071 27.3487 20.598C25.1224 23.6993 22.8297 26.4794 19.961 29.0269C18.895 29.9767 17.2945 29.1681 17.2945 27.8085V21.977H13.9883C13.6886 21.9779 13.3945 21.8962 13.1382 21.7409C12.8819 21.5856 12.6733 21.3626 12.5354 21.0965C12.3975 20.8305 12.3356 20.5315 12.3564 20.2326C12.3773 19.9336 12.4801 19.6462 12.6536 19.4018C14.8799 16.3006 17.1754 13.5205 20.0413 10.973Z" fill="#D8212E"/>
</svg>
