<svg width="40" height="40" viewBox="0 0 40 40" fill="none" xmlns="http://www.w3.org/2000/svg">
<path d="M20 35C21.9698 35 23.9204 34.612 25.7403 33.8582C27.5601 33.1044 29.2137 31.9995 30.6066 30.6066C31.9995 29.2137 33.1044 27.5601 33.8582 25.7403C34.612 23.9204 35 21.9698 35 20C35 18.0302 34.612 16.0796 33.8582 14.2597C33.1044 12.4399 31.9995 10.7863 30.6066 9.3934C29.2137 8.00052 27.5601 6.89563 25.7403 6.14181C23.9204 5.38799 21.9698 5 20 5M20 35C18.0302 35 16.0796 34.612 14.2597 33.8582C12.4399 33.1044 10.7863 31.9995 9.3934 30.6066C8.00052 29.2137 6.89563 27.5601 6.14181 25.7403C5.38799 23.9204 5 21.9698 5 20C5 18.0302 5.38799 16.0796 6.14181 14.2597C6.89563 12.4399 8.00052 10.7863 9.3934 9.3934C10.7863 8.00052 12.4399 6.89563 14.2597 6.14181C16.0796 5.38799 18.0302 5 20 5M20 35C24.6017 35 26.5683 26.395 26.5683 20C26.5683 13.605 24.6017 5 20 5M20 35C15.3983 35 13.4317 26.395 13.4317 20C13.4317 13.605 15.3983 5 20 5M5.83333 15H34.1667M5.83333 25H34.1667" stroke="#D8222F" stroke-width="2.5" stroke-linecap="round" stroke-linejoin="round"/>
<rect x="2" y="15" width="36" height="11" rx="2" fill="#D82330"/>
<path d="M10.07 24L8.135 17.493H9.053L10.241 21.471C10.289 21.639 10.334 21.816 10.376 22.002C10.418 22.188 10.463 22.404 10.511 22.65C10.565 22.386 10.616 22.167 10.664 21.993C10.718 21.819 10.769 21.645 10.817 21.471L12.05 17.493H13.004L14.228 21.471C14.282 21.645 14.333 21.825 14.381 22.011C14.429 22.197 14.477 22.41 14.525 22.65C14.585 22.374 14.636 22.146 14.678 21.966C14.726 21.786 14.771 21.624 14.813 21.48L16.01 17.493H16.91L14.948 24H14.102L12.527 18.852L10.934 24H10.07ZM18.9837 24.108C18.5577 24.108 18.1797 24.012 17.8497 23.82C17.5197 23.622 17.2617 23.352 17.0757 23.01C16.8897 22.662 16.7967 22.26 16.7967 21.804C16.7967 21.342 16.8867 20.937 17.0667 20.589C17.2527 20.241 17.5047 19.968 17.8227 19.77C18.1467 19.572 18.5217 19.473 18.9477 19.473C19.3677 19.473 19.7307 19.563 20.0367 19.743C20.3487 19.923 20.5887 20.175 20.7567 20.499C20.9307 20.823 21.0177 21.204 21.0177 21.642V21.957L17.2467 21.966L17.2647 21.399H20.1717C20.1717 21.033 20.0607 20.739 19.8387 20.517C19.6167 20.295 19.3197 20.184 18.9477 20.184C18.6657 20.184 18.4227 20.247 18.2187 20.373C18.0207 20.493 17.8677 20.673 17.7597 20.913C17.6577 21.147 17.6067 21.429 17.6067 21.759C17.6067 22.287 17.7267 22.695 17.9667 22.983C18.2067 23.265 18.5517 23.406 19.0017 23.406C19.3317 23.406 19.6017 23.34 19.8117 23.208C20.0217 23.076 20.1627 22.884 20.2347 22.632H21.0267C20.9187 23.1 20.6877 23.463 20.3337 23.721C19.9797 23.979 19.5297 24.108 18.9837 24.108ZM22.7276 24H21.9626V17.376H22.8086V20.355C22.9526 20.067 23.1656 19.848 23.4476 19.698C23.7296 19.548 24.0506 19.473 24.4106 19.473C24.8306 19.473 25.1906 19.575 25.4906 19.779C25.7906 19.977 26.0216 20.253 26.1836 20.607C26.3456 20.961 26.4266 21.366 26.4266 21.822C26.4266 22.26 26.3426 22.653 26.1746 23.001C26.0066 23.349 25.7666 23.622 25.4546 23.82C25.1486 24.012 24.7826 24.108 24.3566 24.108C24.0146 24.108 23.7026 24.03 23.4206 23.874C23.1446 23.718 22.9346 23.493 22.7906 23.199L22.7276 24ZM22.8176 21.786C22.8176 22.092 22.8716 22.362 22.9796 22.596C23.0936 22.83 23.2526 23.013 23.4566 23.145C23.6666 23.277 23.9156 23.343 24.2036 23.343C24.4916 23.343 24.7376 23.277 24.9416 23.145C25.1456 23.013 25.3016 22.83 25.4096 22.596C25.5236 22.362 25.5806 22.092 25.5806 21.786C25.5806 21.486 25.5236 21.222 25.4096 20.994C25.3016 20.76 25.1456 20.577 24.9416 20.445C24.7376 20.307 24.4916 20.238 24.2036 20.238C23.9156 20.238 23.6666 20.304 23.4566 20.436C23.2526 20.568 23.0936 20.751 22.9796 20.985C22.8716 21.213 22.8176 21.48 22.8176 21.786ZM31.3641 18.204L28.9791 20.481L28.4031 20.049L30.7071 17.835L30.6621 18.276H27.3231V17.493H31.3641V18.204ZM29.0511 20.634H28.4031V20.049C28.5051 19.983 28.6311 19.941 28.7811 19.923C28.9371 19.899 29.0871 19.887 29.2311 19.887C29.5491 19.887 29.8461 19.935 30.1221 20.031C30.3981 20.121 30.6411 20.256 30.8511 20.436C31.0671 20.616 31.2321 20.835 31.3461 21.093C31.4661 21.345 31.5261 21.633 31.5261 21.957C31.5261 22.395 31.4241 22.776 31.2201 23.1C31.0221 23.424 30.7461 23.673 30.3921 23.847C30.0441 24.021 29.6511 24.108 29.2131 24.108C28.7871 24.108 28.4091 24.024 28.0791 23.856C27.7491 23.688 27.4881 23.445 27.2961 23.127C27.1101 22.803 27.0171 22.419 27.0171 21.975H27.8901C27.8901 22.395 28.0101 22.725 28.2501 22.965C28.4961 23.199 28.8231 23.316 29.2311 23.316C29.6511 23.316 29.9871 23.19 30.2391 22.938C30.4971 22.686 30.6261 22.353 30.6261 21.939C30.6261 21.549 30.4941 21.234 30.2301 20.994C29.9661 20.754 29.5731 20.634 29.0511 20.634Z" fill="#FFFEFE"/>
</svg>
