<svg width="40" height="40" viewBox="0 0 40 40" fill="none" xmlns="http://www.w3.org/2000/svg">
<path d="M35 11.6667C35 15.35 28.2833 18.3333 20 18.3333C11.7167 18.3333 5 15.35 5 11.6667C5 7.98333 11.7167 5 20 5C28.2833 5 35 7.98333 35 11.6667Z" fill="#D8212E"/>
<path d="M35 11.6667C35 15.35 28.2833 18.3333 20 18.3333C11.7167 18.3333 5 15.35 5 11.6667M35 11.6667C35 7.98333 28.2833 5 20 5C11.7167 5 5 7.98333 5 11.6667M35 11.6667V20M5 11.6667V20M5 20C5 23.6833 11.7167 26.6667 20 26.6667M5 20V28.3333C5 32.0167 11.7167 35 20 35M30 25V30M30 30V35M30 30H35M30 30H25" stroke="#D8212E" stroke-width="3.33333" stroke-linecap="round" stroke-linejoin="round"/>
</svg>
