<svg width="40" height="40" viewBox="0 0 40 40" fill="none" xmlns="http://www.w3.org/2000/svg">
<path d="M15.1783 9.08004C16.1749 6.16337 20.2049 6.07504 21.3866 8.81504L21.4866 9.08171L22.8316 13.015C23.1398 13.9171 23.6379 14.7426 24.2923 15.4357C24.9467 16.1289 25.7421 16.6737 26.6249 17.0334L26.9866 17.1684L30.9199 18.5117C33.8366 19.5084 33.9249 23.5384 31.1866 24.72L30.9199 24.82L26.9866 26.165C26.0842 26.4731 25.2584 26.9711 24.565 27.6255C23.8715 28.2799 23.3264 29.0754 22.9666 29.9584L22.8316 30.3184L21.4883 34.2534C20.4916 37.17 16.4616 37.2584 15.2816 34.52L15.1783 34.2534L13.8349 30.32C13.5269 29.4177 13.0289 28.5919 12.3745 27.8984C11.7201 27.2049 10.9246 26.6599 10.0416 26.3L9.6816 26.165L5.74826 24.8217C2.82993 23.825 2.7416 19.795 5.4816 18.615L5.74826 18.5117L9.6816 17.1684C10.5837 16.8601 11.4091 16.362 12.1023 15.7077C12.7955 15.0533 13.3403 14.2579 13.6999 13.375L13.8349 13.015L15.1783 9.08004ZM31.6666 3.33337C31.9784 3.33337 32.2839 3.42084 32.5485 3.58583C32.8131 3.75082 33.0261 3.98671 33.1633 4.26671L33.2433 4.46171L33.8266 6.17171L35.5383 6.75504C35.8507 6.8612 36.1247 7.05773 36.3253 7.31973C36.526 7.58173 36.6443 7.8974 36.6654 8.22674C36.6865 8.55608 36.6093 8.88426 36.4436 9.16969C36.278 9.45511 36.0313 9.68494 35.7349 9.83004L35.5383 9.91004L33.8283 10.4934L33.2449 12.205C33.1386 12.5174 32.9419 12.7912 32.6798 12.9917C32.4177 13.1922 32.102 13.3104 31.7727 13.3312C31.4433 13.3521 31.1152 13.2748 30.8299 13.109C30.5446 12.9432 30.3149 12.6965 30.1699 12.4L30.0899 12.205L29.5066 10.495L27.7949 9.91171C27.4825 9.80555 27.2085 9.60902 27.0079 9.34702C26.8072 9.08502 26.6889 8.76934 26.6678 8.44001C26.6467 8.11067 26.7239 7.78249 26.8896 7.49706C27.0552 7.21164 27.3019 6.98181 27.5983 6.83671L27.7949 6.75671L29.5049 6.17337L30.0883 4.46171C30.2006 4.13242 30.4133 3.84656 30.6963 3.64421C30.9794 3.44186 31.3187 3.33317 31.6666 3.33337Z" fill="#D9212E"/>
</svg>
