<svg width="550" height="550" viewBox="0 0 550 550" fill="none" xmlns="http://www.w3.org/2000/svg">
<circle cx="274.788" cy="274.788" r="252.748" stroke="#FFDADB"/>
<path d="M119.719 74.5673C155.923 46.5279 199.052 28.8295 244.516 23.3557L244.687 24.7758C199.48 30.2187 156.594 47.8171 120.595 75.6981L119.719 74.5673Z" fill="#EC2B39"/>
<path d="M119.08 474.512C82.9665 446.357 55.1623 408.937 38.627 366.234L39.9608 365.718C56.4027 408.179 84.0499 445.388 119.96 473.383L119.08 474.512Z" fill="#EC2B39"/>
<path d="M522.736 326.326C513.417 371.16 492.116 412.628 461.1 446.316L460.048 445.348C490.889 411.849 512.069 370.615 521.336 326.035L522.736 326.326Z" fill="#EC2B39"/>
<circle cx="274.788" cy="274.788" r="194.825" transform="rotate(50.8601 274.788 274.788)" stroke="#FFDADB"/>
<path d="M319.067 84.5479C353.466 92.5545 385.051 109.738 410.459 134.27L409.693 135.064C384.428 110.67 353.022 93.5838 318.817 85.6224L319.067 84.5479Z" fill="#EC2B39"/>
<path d="M79.5054 278.876C78.7661 243.565 87.6148 208.715 105.11 178.034L106.068 178.58C88.672 209.088 79.8733 243.742 80.6084 278.853L79.5054 278.876Z" fill="#EC2B39"/>
<path d="M364.669 448.204C333.312 464.456 298.135 471.902 262.882 469.749L262.95 468.648C298.003 470.789 332.982 463.385 364.161 447.224L364.669 448.204Z" fill="#EC2B39"/>
<circle cx="274.788" cy="274.788" r="134.528" transform="rotate(89.4361 274.788 274.788)" fill="#FFF9F9" stroke="#FFDADB"/>
<path d="M305.512 289.788L305.512 275.1L338.104 275.1C340.984 275.1 343.336 272.748 343.336 269.868L343.336 265.644C343.336 262.764 340.936 260.364 338.056 260.364L305.512 260.364L305.512 256.188L338.056 256.188C343.288 256.188 347.512 260.412 347.512 265.644L347.512 269.868C347.512 275.052 343.288 279.276 338.104 279.276L309.736 279.276L309.736 289.788L305.512 289.788Z" fill="#EC2B39"/>
<path d="M272.645 289.788L253.925 256.188L258.677 256.188L274.901 285.228L291.173 256.188L295.925 256.188L277.205 289.788L272.645 289.788Z" fill="#EC2B39"/>
<path d="M201.588 256.188L205.428 256.188L222.228 268.764L222.948 268.764L239.748 256.188L243.588 256.188L243.588 289.788L239.412 289.788L239.412 261.708L224.34 272.988L220.836 272.988L205.812 261.708L205.812 289.788L201.588 289.788L201.588 256.188Z" fill="#EC2B39"/>
<path d="M380.724 191.061C395.863 210.216 405.525 233.118 408.682 257.328L407.926 257.427C404.787 233.353 395.179 210.581 380.125 191.534L380.724 191.061Z" fill="#EC2B39"/>
<path d="M167.486 192.819C182.308 173.417 202.113 158.396 224.793 149.356L225.076 150.065C202.523 159.054 182.83 173.989 168.092 193.282L167.486 192.819Z" fill="#EC2B39"/>
<path d="M248.611 407.254C224.659 402.521 202.438 391.381 184.314 375.022L184.825 374.456C202.846 390.723 224.942 401.799 248.759 406.506L248.611 407.254Z" fill="#EC2B39"/>
</svg>
