<svg width="40" height="40" viewBox="0 0 40 40" fill="none" xmlns="http://www.w3.org/2000/svg">
<path d="M15.914 29.8656C15.2093 31.4062 12.8577 34.9999 6.24992 34.9999C5.9184 34.9999 5.60046 34.8682 5.36604 34.6338C5.13162 34.3994 4.99992 34.0815 4.99992 33.7499C4.99992 27.1421 8.59367 24.7906 10.1343 24.0859C10.2837 24.0178 10.445 23.9797 10.6091 23.974C10.7732 23.9682 10.9368 23.9948 11.0906 24.0522C11.2444 24.1097 11.3853 24.1969 11.5054 24.3088C11.6255 24.4208 11.7224 24.5553 11.7905 24.7046C11.8587 24.854 11.8967 25.0153 11.9025 25.1794C11.9083 25.3435 11.8817 25.5071 11.8242 25.6609C11.7667 25.8147 11.6796 25.9557 11.5676 26.0758C11.4557 26.1959 11.3212 26.2928 11.1718 26.3609C10.1671 26.8187 7.94992 28.2921 7.5593 32.4406C11.7077 32.0499 13.1843 29.8328 13.639 28.8281C13.7071 28.6787 13.804 28.5442 13.9241 28.4323C14.0442 28.3203 14.1852 28.2331 14.339 28.1757C14.4928 28.1182 14.6564 28.0916 14.8204 28.0974C14.9845 28.1032 15.1459 28.1412 15.2952 28.2093C15.4446 28.2774 15.5791 28.3743 15.6911 28.4944C15.803 28.6145 15.8902 28.7555 15.9476 28.9093C16.0051 29.0631 16.0317 29.2267 16.0259 29.3908C16.0201 29.5549 15.9821 29.7162 15.914 29.8656ZM34.9765 7.36557C34.9394 6.75608 34.6806 6.18122 34.2489 5.74945C33.8171 5.31768 33.2422 5.05886 32.6327 5.02182C30.6671 4.90463 25.6437 5.08432 21.4765 9.2515L13.7499 16.9843C13.6339 17.1006 13.4961 17.1928 13.3444 17.2558C13.1927 17.3188 13.0301 17.3513 12.8659 17.3514C12.5342 17.3517 12.2159 17.2202 11.9812 16.9859C11.7464 16.7515 11.6144 16.4335 11.6141 16.1018C11.6138 15.7701 11.7453 15.4519 11.9796 15.2171L16.1296 11.0656C16.2165 10.9782 16.2756 10.867 16.2995 10.7462C16.3234 10.6253 16.311 10.5 16.2639 10.3861C16.2168 10.2722 16.1371 10.1748 16.0348 10.1061C15.9325 10.0374 15.8122 10.0005 15.689 9.99994H11.6171C11.2878 9.99821 10.9614 10.062 10.657 10.1875C10.3525 10.313 10.0761 10.4978 9.84367 10.7312L4.4843 16.0937C4.15562 16.4221 3.92499 16.8357 3.81828 17.2879C3.71157 17.7402 3.73301 18.2132 3.88019 18.6539C4.02738 19.0947 4.29447 19.4857 4.65151 19.783C5.00855 20.0804 5.4414 20.2724 5.90149 20.3374L11.9124 21.1765L18.8202 28.0843L19.6593 34.0984C19.7238 34.5585 19.9158 34.9914 20.2134 35.3481C20.5111 35.7049 20.9026 35.9712 21.3437 36.1171C21.6006 36.203 21.8697 36.2467 22.1405 36.2468C22.4685 36.2474 22.7934 36.1831 23.0964 36.0576C23.3995 35.9321 23.6747 35.7479 23.9062 35.5156L29.2687 30.1562C29.5013 29.9233 29.6857 29.6467 29.8112 29.3424C29.9367 29.0381 30.0008 28.7119 29.9999 28.3828V24.3109C29.9997 24.1873 29.9629 24.0666 29.8941 23.964C29.8253 23.8613 29.7276 23.7814 29.6134 23.7343C29.4992 23.6871 29.3736 23.6749 29.2525 23.6991C29.1313 23.7233 29.0201 23.7828 28.9327 23.8703L24.7812 28.0203C24.6598 28.1418 24.5146 28.237 24.3547 28.2999C24.1949 28.3629 24.0237 28.3922 23.852 28.386C23.6803 28.3799 23.5118 28.3384 23.3568 28.2642C23.2019 28.1899 23.0639 28.0846 22.9515 27.9546C22.7464 27.7066 22.6423 27.3905 22.6596 27.0691C22.677 26.7478 22.8147 26.4447 23.0452 26.2203L30.7437 18.5218C34.914 14.3531 35.0937 9.32963 34.9765 7.36244V7.36557Z" fill="#D8212E"/>
</svg>
