<svg width="550" height="550" viewBox="0 0 550 550" fill="none" xmlns="http://www.w3.org/2000/svg">
<circle cx="274.788" cy="274.788" r="252.748" stroke="#FFDADC"/>
<path d="M119.719 74.5673C155.923 46.5279 199.052 28.8295 244.516 23.3557L244.686 24.7758C199.48 30.2187 156.594 47.8171 120.595 75.6981L119.719 74.5673Z" fill="#EC2B39"/>
<path d="M119.08 474.512C82.9664 446.357 55.1622 408.937 38.6269 366.234L39.9607 365.718C56.4026 408.179 84.0498 445.388 119.96 473.383L119.08 474.512Z" fill="#EC2B39"/>
<path d="M522.736 326.326C513.417 371.16 492.116 412.628 461.1 446.316L460.048 445.348C490.888 411.849 512.069 370.615 521.336 326.035L522.736 326.326Z" fill="#EC2B39"/>
<circle cx="274.787" cy="274.788" r="194.825" transform="rotate(50.8601 274.787 274.788)" stroke="#FFDADC"/>
<path d="M319.067 84.5479C353.466 92.5545 385.05 109.738 410.458 134.27L409.692 135.064C384.427 110.67 353.021 93.5838 318.817 85.6224L319.067 84.5479Z" fill="#EC2B39"/>
<path d="M79.5049 278.876C78.7657 243.565 87.6143 208.715 105.109 178.034L106.068 178.58C88.6715 209.088 79.8728 243.742 80.6079 278.853L79.5049 278.876Z" fill="#EC2B39"/>
<path d="M364.669 448.204C333.312 464.456 298.135 471.902 262.882 469.749L262.949 468.648C298.003 470.789 332.981 463.385 364.161 447.224L364.669 448.204Z" fill="#EC2B39"/>
<circle cx="274.788" cy="274.788" r="134.528" transform="rotate(89.4361 274.788 274.788)" fill="#FFF9F9" stroke="#FFDADB"/>
<path d="M216.397 254.464C212.909 254.464 210.093 251.648 210.093 248.192C210.093 244.704 212.909 241.888 216.397 241.888L235.277 241.888L234.605 244.672L216.397 244.672C214.477 244.672 212.877 246.24 212.877 248.192C212.877 250.112 214.477 251.68 216.397 251.68L231.789 251.68C235.277 251.68 238.093 254.496 238.093 257.984C238.093 261.472 235.277 264.288 231.789 264.288L212.877 264.288L213.581 261.472L231.789 261.472C233.709 261.472 235.277 259.904 235.277 257.984C235.277 256.064 233.709 254.464 231.789 254.464L216.397 254.464ZM246.676 264.288L243.86 264.288L243.86 247.328L266.26 247.328C269.364 247.328 271.86 249.824 271.86 252.928L271.86 264.288L269.076 264.288L269.076 252.928C269.076 251.36 267.796 250.112 266.26 250.112L259.252 250.112L259.252 264.288L256.468 264.288L256.468 250.112L246.676 250.112L246.676 264.288ZM276.22 258.624C276.22 255.52 278.748 252.992 281.884 252.992L293.18 252.992C294.204 252.992 295.164 253.248 295.996 253.76L295.996 252.992C295.996 251.424 294.748 250.176 293.18 250.176L279.036 250.176L279.74 247.328L293.18 247.328C296.284 247.328 298.812 249.888 298.812 252.992L298.812 264.288L295.996 264.288L295.996 263.52C295.164 264 294.204 264.288 293.18 264.288L281.884 264.288C278.748 264.288 276.22 261.76 276.22 258.624ZM279.036 258.624C279.036 260.192 280.316 261.472 281.884 261.472L293.18 261.472C294.748 261.472 295.996 260.192 295.996 258.624C295.996 257.088 294.748 255.808 293.18 255.808L281.884 255.808C280.316 255.808 279.036 257.088 279.036 258.624ZM304.361 264.288L304.361 247.328L307.177 247.328L307.177 248.096C307.977 247.616 308.937 247.328 309.961 247.328L323.945 247.328L323.241 250.144L309.961 250.144C308.425 250.144 307.177 251.36 307.177 252.896L307.177 264.288L304.361 264.288ZM334.665 264.288C331.593 264.288 329.065 261.792 329.065 258.688L329.065 241.888L331.881 241.888L331.881 247.328L337.481 247.328L336.777 250.144L331.881 250.144L331.881 258.688C331.881 260.224 333.129 261.504 334.665 261.504L340.265 261.504L339.561 264.288L334.665 264.288ZM189.545 302.288C186.057 302.288 183.241 299.472 183.241 295.984L183.241 286.16C183.241 282.704 186.057 279.888 189.513 279.888L208.425 279.888L207.721 282.672L189.513 282.672C187.593 282.672 186.057 284.24 186.057 286.16L186.057 295.984C186.057 297.904 187.593 299.472 189.545 299.472L211.241 299.472L210.537 302.288L189.545 302.288ZM214.288 290.928C214.288 287.824 216.816 285.328 219.888 285.328L231.088 285.328C234.192 285.328 236.688 287.824 236.688 290.928L236.688 296.688C236.688 299.76 234.192 302.288 231.088 302.288L219.888 302.288C216.816 302.288 214.288 299.76 214.288 296.688L214.288 290.928ZM219.888 288.112C218.352 288.112 217.104 289.392 217.104 290.928L217.104 296.688C217.104 298.224 218.352 299.472 219.888 299.472L231.088 299.472C232.624 299.472 233.904 298.224 233.904 296.688L233.904 290.928C233.904 289.392 232.624 288.112 231.088 288.112L219.888 288.112ZM241.492 302.288L241.492 285.328L258.292 285.328C261.396 285.328 263.892 287.824 263.892 290.928L263.892 302.288L261.108 302.288L261.108 290.928C261.108 289.392 259.828 288.112 258.292 288.112L244.308 288.112L244.308 302.288L241.492 302.288ZM273.671 302.288C270.599 302.288 268.071 299.792 268.071 296.688L268.071 279.888L270.887 279.888L270.887 285.328L276.487 285.328L275.783 288.144L270.887 288.144L270.887 296.688C270.887 298.224 272.135 299.504 273.671 299.504L279.271 299.504L278.567 302.288L273.671 302.288ZM282.743 302.288L282.743 285.328L285.559 285.328L285.559 286.096C286.359 285.616 287.319 285.328 288.343 285.328L302.327 285.328L301.623 288.144L288.343 288.144C286.807 288.144 285.559 289.36 285.559 290.896L285.559 302.288L282.743 302.288ZM302.916 296.624C302.916 293.52 305.444 290.992 308.58 290.992L319.876 290.992C320.9 290.992 321.86 291.248 322.692 291.76L322.692 290.992C322.692 289.424 321.444 288.176 319.876 288.176L305.732 288.176L306.436 285.328L319.876 285.328C322.98 285.328 325.508 287.888 325.508 290.992L325.508 302.288L322.692 302.288L322.692 301.52C321.86 302 320.9 302.288 319.876 302.288L308.58 302.288C305.444 302.288 302.916 299.76 302.916 296.624ZM305.732 296.624C305.732 298.192 307.012 299.472 308.58 299.472L319.876 299.472C321.444 299.472 322.692 298.192 322.692 296.624C322.692 295.088 321.444 293.808 319.876 293.808L308.58 293.808C307.012 293.808 305.732 295.088 305.732 296.624ZM330.307 290.928C330.307 287.856 332.803 285.328 335.907 285.328L349.891 285.328L349.187 288.144L335.907 288.144C334.371 288.144 333.091 289.392 333.091 290.928L333.091 296.688C333.091 298.224 334.371 299.504 335.907 299.504L352.707 299.504L352.003 302.288L335.907 302.288C332.803 302.288 330.307 299.792 330.307 296.688L330.307 290.928ZM361.517 302.288C358.445 302.288 355.917 299.792 355.917 296.688L355.917 279.888L358.733 279.888L358.733 285.328L364.333 285.328L363.629 288.144L358.733 288.144L358.733 296.688C358.733 298.224 359.981 299.504 361.517 299.504L367.117 299.504L366.413 302.288L361.517 302.288Z" fill="#EC2B39"/>
<path d="M380.724 191.061C395.863 210.216 405.525 233.118 408.682 257.328L407.926 257.427C404.787 233.353 395.179 210.581 380.125 191.534L380.724 191.061Z" fill="#EC2B39"/>
<path d="M167.486 192.819C182.308 173.417 202.113 158.396 224.793 149.356L225.076 150.065C202.523 159.054 182.83 173.989 168.092 193.282L167.486 192.819Z" fill="#EC2B39"/>
<path d="M248.611 407.254C224.659 402.521 202.438 391.381 184.313 375.022L184.824 374.456C202.846 390.723 224.942 401.799 248.759 406.506L248.611 407.254Z" fill="#EC2B39"/>
</svg>
