<svg width="40" height="40" viewBox="0 0 40 40" fill="none" xmlns="http://www.w3.org/2000/svg">
<path d="M31.25 6.25H26.25C26.25 5.58696 25.9866 4.95107 25.5178 4.48223C25.0489 4.01339 24.413 3.75 23.75 3.75H5C4.33696 3.75 3.70107 4.01339 3.23223 4.48223C2.76339 4.95107 2.5 5.58696 2.5 6.25V18.75C2.5 19.413 2.76339 20.0489 3.23223 20.5178C3.70107 20.9866 4.33696 21.25 5 21.25H6.25V31.25C6.25 31.913 6.51339 32.5489 6.98223 33.0178C7.45107 33.4866 8.08696 33.75 8.75 33.75H31.25C31.913 33.75 32.5489 33.4866 33.0178 33.0178C33.4866 32.5489 33.75 31.913 33.75 31.25V8.75C33.75 8.08696 33.4866 7.45107 33.0178 6.98223C32.5489 6.51339 31.913 6.25 31.25 6.25ZM16.6156 9.63438C16.3811 9.39982 16.2493 9.08171 16.2493 8.75C16.2493 8.41829 16.3811 8.10018 16.6156 7.86562C16.8502 7.63107 17.1683 7.49931 17.5 7.49931C17.8317 7.49931 18.1498 7.63107 18.3844 7.86562L22.1344 11.6156C22.2506 11.7317 22.3428 11.8696 22.4057 12.0213C22.4686 12.1731 22.501 12.3357 22.501 12.5C22.501 12.6643 22.4686 12.8269 22.4057 12.9787C22.3428 13.1304 22.2506 13.2683 22.1344 13.3844L18.3844 17.1344C18.1498 17.3689 17.8317 17.5007 17.5 17.5007C17.1683 17.5007 16.8502 17.3689 16.6156 17.1344C16.3811 16.8998 16.2493 16.5817 16.2493 16.25C16.2493 15.9183 16.3811 15.6002 16.6156 15.3656L19.4828 12.5L16.6156 9.63438ZM6.61562 13.3844C6.4994 13.2683 6.40721 13.1304 6.3443 12.9787C6.2814 12.8269 6.24902 12.6643 6.24902 12.5C6.24902 12.3357 6.2814 12.1731 6.3443 12.0213C6.40721 11.8696 6.4994 11.7317 6.61562 11.6156L10.3656 7.86562C10.6002 7.63107 10.9183 7.49931 11.25 7.49931C11.5817 7.49931 11.8998 7.63107 12.1344 7.86562C12.3689 8.10018 12.5007 8.41829 12.5007 8.75C12.5007 9.08171 12.3689 9.39982 12.1344 9.63438L9.26719 12.5L12.1344 15.3656C12.3689 15.6002 12.5007 15.9183 12.5007 16.25C12.5007 16.5817 12.3689 16.8998 12.1344 17.1344C11.8998 17.3689 11.5817 17.5007 11.25 17.5007C10.9183 17.5007 10.6002 17.3689 10.3656 17.1344L6.61562 13.3844ZM31.25 31.25H8.75V21.25H23.75C24.413 21.25 25.0489 20.9866 25.5178 20.5178C25.9866 20.0489 26.25 19.413 26.25 18.75V8.75H31.25V31.25Z" fill="#D8212E"/>
</svg>
