<svg width="46" height="46" viewBox="0 0 46 46" fill="none" xmlns="http://www.w3.org/2000/svg">
<g clip-path="url(#clip0_131_4165)">
<path d="M37.9543 6.54374L35.8421 1.75207C34.811 -0.584348 31.4932 -0.584348 30.464 1.75207L28.3518 6.54374C28.0564 7.21488 27.5203 7.751 26.8491 8.0464L22.0575 10.1586C19.7191 11.1897 19.7191 14.5075 22.0575 15.5367L26.8491 17.6489C27.52 17.9441 28.0566 18.4807 28.3518 19.1516L30.464 23.9432C31.4932 26.2816 34.811 26.2816 35.8421 23.9432L37.9543 19.1516C38.2495 18.4807 38.7861 17.9441 39.457 17.6489L44.2486 15.5367C46.5851 14.5075 46.5851 11.1897 44.2486 10.1586L39.457 8.0464C38.7858 7.751 38.2497 7.21488 37.9543 6.54374ZM10.431 18.2469L11.8493 21.4631C12.0467 21.9135 12.4071 22.2738 12.8575 22.4732L16.0717 23.8915C17.6434 24.5815 17.6434 26.8087 16.0717 27.5006L12.8575 28.9189C12.4068 29.1172 12.0466 29.4768 11.8474 29.9271L10.4291 33.1432C9.73906 34.713 7.5119 34.713 6.81998 33.1432L5.40165 29.9271C5.20291 29.4772 4.84339 29.1176 4.39348 28.9189L1.17731 27.5006C-0.392437 26.8106 -0.392437 24.5815 1.17731 23.8896L4.39348 22.4712C4.8439 22.2738 5.20423 21.9135 5.40165 21.4631L6.81998 18.2469C7.50998 16.6791 9.73906 16.6791 10.431 18.2469ZM27.5372 32.7637L28.7026 35.4126C28.8674 35.7825 29.1626 36.0796 29.5344 36.2425L32.1832 37.4117C32.4706 37.5393 32.7148 37.7476 32.8862 38.0112C33.0576 38.2749 33.1488 38.5826 33.1488 38.8971C33.1488 39.2115 33.0576 39.5193 32.8862 39.7829C32.7148 40.0466 32.4706 40.2548 32.1832 40.3825L29.5344 41.5517C29.1635 41.7152 28.867 42.0111 28.7026 42.3816L27.5372 45.0285C27.4098 45.3164 27.2016 45.5612 26.9377 45.733C26.6738 45.9048 26.3657 45.9963 26.0509 45.9963C25.736 45.9963 25.4279 45.9048 25.164 45.733C24.9002 45.5612 24.6919 45.3164 24.5645 45.0285L23.3953 42.3816C23.2318 42.0107 22.9359 41.7141 22.5654 41.5497L19.9185 40.3825C19.6311 40.2548 19.3869 40.0466 19.2155 39.7829C19.0441 39.5193 18.9529 39.2115 18.9529 38.8971C18.9529 38.5826 19.0441 38.2749 19.2155 38.0112C19.3869 37.7476 19.6311 37.5393 19.9185 37.4117L22.5654 36.2425C22.9363 36.079 23.2328 35.7831 23.3972 35.4126L24.5645 32.7637C24.6921 32.4763 24.9004 32.2321 25.1641 32.0608C25.4277 31.8894 25.7354 31.7981 26.0499 31.7981C26.3644 31.7981 26.6721 31.8894 26.9357 32.0608C27.1994 32.2321 27.4096 32.4763 27.5372 32.7637Z" fill="#D84040"/>
</g>
<defs>
<clipPath id="clip0_131_4165">
<rect width="46" height="46" fill="white"/>
</clipPath>
</defs>
</svg>
