<svg width="40" height="40" viewBox="0 0 40 40" fill="none" xmlns="http://www.w3.org/2000/svg">
<path d="M19.9995 21.6664C25.5222 21.6664 29.9992 23.9051 29.9995 26.6664C29.9995 29.4278 25.5224 31.6664 19.9995 31.6664C14.4769 31.6663 10.0005 29.4277 10.0005 26.6664C10.0008 23.9052 14.4771 21.6665 19.9995 21.6664ZM10.6362 21.6986C8.6849 23.0216 7.49971 24.7609 7.49951 26.6664C7.49951 27.7467 7.88059 28.7745 8.56592 29.7025C5.49905 29.0874 3.3335 27.5866 3.3335 25.8334C3.33364 23.7067 6.52021 21.9524 10.6362 21.6986ZM29.3638 21.6986C33.4797 21.9525 36.6664 23.7068 36.6665 25.8334C36.6665 27.5866 34.5008 29.0874 31.4341 29.7025C32.1194 28.7745 32.4995 27.7467 32.4995 26.6664C32.4993 24.7609 31.315 23.0215 29.3638 21.6986ZM11.6665 11.6664C12.0101 11.6664 12.3419 11.7183 12.6538 11.8148C12.553 12.3051 12.5005 12.8133 12.5005 13.3334C12.5005 14.9007 12.9811 16.3557 13.8032 17.559C13.2247 18.0424 12.4793 18.3334 11.6665 18.3334C9.82575 18.3333 8.33369 16.8411 8.3335 15.0004C8.3335 13.1595 9.82563 11.6665 11.6665 11.6664ZM19.9995 8.33337C22.7609 8.33337 24.9995 10.572 24.9995 13.3334C24.9995 16.0948 22.7609 18.3334 19.9995 18.3334C17.2383 18.3331 15.0005 16.0946 15.0005 13.3334C15.0005 10.5721 17.2383 8.33364 19.9995 8.33337ZM28.3335 11.6664C30.1743 11.6665 31.6665 13.1595 31.6665 15.0004C31.6663 16.8411 30.1742 18.3333 28.3335 18.3334C27.5207 18.3334 26.7753 18.0424 26.1968 17.559C27.0189 16.3557 27.4995 14.9007 27.4995 13.3334C27.4995 12.8133 27.447 12.3051 27.3462 11.8148C27.6581 11.7183 27.9899 11.6664 28.3335 11.6664Z" fill="#D8212E"/>
</svg>
