<svg width="63" height="64" viewBox="0 0 63 64" fill="none" xmlns="http://www.w3.org/2000/svg">
<rect width="62.359" height="64" rx="8" fill="#EC2B39"/>
<path d="M27.6501 18.5597C28.0413 18.1685 28.5771 17.9567 29.13 17.9748L32.9472 18.1005C33.4547 18.1171 33.9368 18.3263 34.2958 18.6854L40.3567 24.7462C40.7157 25.1052 40.9249 25.5873 40.9415 26.0948L41.0672 29.9121C41.0853 30.465 40.8735 31.0007 40.4823 31.3919L34.8994 36.9749C34.5283 37.3458 34.0264 37.5562 33.5017 37.5604L29.4593 37.5922C28.9237 37.5963 28.4087 37.3854 28.0299 37.0066L22.0354 31.0121C21.6567 30.6333 21.4457 30.1184 21.4498 29.5827L21.4816 25.5403C21.4859 25.0157 21.6962 24.5137 22.0672 24.1427L27.6501 18.5597ZM23.7749 26.4484C22.9938 27.2294 22.9938 28.4957 23.7749 29.2768L29.7659 35.2679C30.547 36.0488 31.8134 36.0489 32.5944 35.2679L38.5854 29.2768C39.3663 28.4958 39.3663 27.2294 38.5854 26.4484L32.5944 20.4573C31.8134 19.6763 30.547 19.6764 29.7659 20.4573L23.7749 26.4484Z" fill="white"/>
<path d="M37.5109 38.9551C37.7851 38.9551 38.0476 39.0677 38.2365 39.2666L43.2657 44.5645C43.4419 44.7502 43.5402 44.9969 43.5402 45.2529V47.7002C43.5402 48.2524 43.0924 48.7001 42.5402 48.7002H39.9181V43.4287C39.9181 42.8764 39.4704 42.4287 38.9181 42.4287H23.4132C22.8611 42.429 22.4132 42.8766 22.4132 43.4287V48.7002H19.7921C19.2398 48.7002 18.7921 48.2525 18.7921 47.7002V45.2695C18.7922 45.0034 18.8983 44.7482 19.087 44.5605L24.4406 39.2451C24.6279 39.0591 24.8817 38.9551 25.1456 38.9551H37.5109Z" fill="white"/>
</svg>
